<svg xmlns="http://www.w3.org/2000/svg" viewBox="0 0 592 372"><defs><style>.cls-1{fill:#abe9ab;}.cls-1,.cls-2,.cls-3{stroke:#000;stroke-miterlimit:10;}.cls-2{fill:#f5911e;stroke-width:2px;}.cls-3{fill:#d5bed6;}.cls-4{font-size:133.87px;font-family:BrandonGrotesque-Black, Brandon Grotesque;font-weight:800;}.cls-5{letter-spacing:-0.02em;}.cls-6{letter-spacing:-0.01em;}</style></defs><g id="logo"><ellipse class="cls-1" cx="257.44" cy="221.66" rx="26.98" ry="27.3"/><path class="cls-2" d="M234.26,236.44H280a1.1,1.1,0,0,1,1,1.47l-21.66,61.71a2,2,0,0,1-3.87,0L233.66,237.3A.64.64,0,0,1,234.26,236.44Z"/><path class="cls-2" d="M239.17,253l13.69-16.55Z"/><path class="cls-2" d="M244.69,268.72l27.39-32.28Z"/><path class="cls-2" d="M250.77,286l23.91-29.91Z"/><path class="cls-2" d="M242,236.44l27.46,34.63Z"/><path class="cls-2" d="M264.18,286l-22.83-26.82Z"/><path class="cls-2" d="M275.51,253.76l-14.62-17.32Z"/><circle class="cls-3" cx="320.69" cy="222.58" r="26.97"/><path class="cls-2" d="M297.52,237.18H343.3a1.09,1.09,0,0,1,1,1.46l-21.66,61a2.05,2.05,0,0,1-3.87,0L296.91,238A.65.65,0,0,1,297.52,237.18Z"/><path class="cls-2" d="M302.42,253.54l13.7-16.36Z"/><path class="cls-2" d="M307.94,269.08l27.39-31.9Z"/><path class="cls-2" d="M314,286.19l23.91-29.56Z"/><path class="cls-2" d="M305.22,237.18l27.46,34.23Z"/><path class="cls-2" d="M327.43,286.19l-22.82-26.5Z"/><path class="cls-2" d="M338.76,254.3l-14.61-17.12Z"/><text class="cls-4" transform="translate(137.45 144.4)"><tspan class="cls-5">O</tspan><tspan x="102.81" y="0">asis</tspan></text><text class="cls-4" transform="translate(99 248.58)"><tspan class="cls-6">S</tspan><tspan x="72.16" y="0" xml:space="preserve">c    ps</tspan></text></g></svg>